<?xml version="1.0" standalone="no"?><!DOCTYPE svg PUBLIC "-//W3C//DTD SVG 1.1//EN" "http://www.w3.org/Graphics/SVG/1.1/DTD/svg11.dtd"><svg t="1605063516769" class="icon" viewBox="0 0 1024 1024" version="1.1" xmlns="http://www.w3.org/2000/svg" p-id="9343" xmlns:xlink="http://www.w3.org/1999/xlink" width="200" height="200"><defs><style type="text/css"></style></defs><path d="M800 0v288a287.84 287.84 0 0 1-140.16 247.2c189.44 61.248 327.36 237.088 332.032 445.76L992 992v32H32v-32c0-213.504 139.424-394.464 332.16-456.8A288 288 0 0 1 503.488 0.128L512 0h288z m-37.44 736l-45.568 44.96 7.04 7.424A286.816 286.816 0 0 1 800 983.264h64l-0.192-11.232A350.848 350.848 0 0 0 762.56 736z" fill="#d81e06" p-id="9344"></path></svg>